<?xml version="1.0" encoding="UTF-8"?>
<svg width="2778px" height="1928px" viewBox="0 0 2778 1928" version="1.1" xmlns="http://www.w3.org/2000/svg" xmlns:xlink="http://www.w3.org/1999/xlink">
    <title>10_peizazh</title>
    <defs>
        <polygon id="path-1" points="0 0.44 2775.38 0.44 2775.38 1928 0 1928"></polygon>
    </defs>
    <g id="10_peizazh" stroke="none" stroke-width="1" fill="none" fill-rule="evenodd">
        <polygon id="Fill-1" fill="#E15E29" points="0 1928 2775.38 1928 2775.38 0.44 0 0.44"></polygon>
        <g id="Group-5">
            <mask id="mask-2" fill="white">
                <use xlink:href="#path-1"></use>
            </mask>
            <g id="Clip-3"></g>
            <polygon id="Stroke-2" stroke="#8F908C" mask="url(#mask-2)" points="0 1928 2775.38 1928 2775.38 0.44 0 0.44"></polygon>
            <polyline id="Fill-4" fill="#D8213B" mask="url(#mask-2)" points="2775.38 964.94 183.397 964.94 0 507.006 0 258.977 199.743 -4.296 641.095 1.153 1519.76 113.826 2771.57 693.149 2775.38 964.94"></polyline>
        </g>
        <polyline id="Fill-6" fill="#EB8B2D" points="2775.38 1928 1758.1 1928 259.68 1180.25 183.397 964.94 2775.38 964.94 2775.38 1928"></polyline>
        <polyline id="Fill-7" fill="#007FBA" points="2194.98 594.767 2189.72 404.896 2180.01 253.021 2195.34 223.917 2233.35 223.956 2249.38 239.718 2258.3 300.722 2267.21 239.718 2283.24 223.956 2321.25 223.917 2336.59 253.021 2326.88 404.896 2321.61 594.767 2315.24 590.695 2348.18 641.576 2376.35 695.346 2409.02 872.773 2433.39 1239.74 2429.26 1302.32 2414.11 1337.17 2369.91 1363.65 2291.4 1383.63 2258.3 1383.62 2225.19 1383.63 2146.68 1363.65 2102.49 1337.17 2087.33 1302.32 2083.2 1239.74 2107.58 872.773 2140.25 695.346 2168.41 641.576 2201.36 590.695"></polyline>
        <polyline id="Fill-8" fill="#8FD1E9" points="707.803 495.177 712.617 337.672 717.784 291.382 723.027 261.227 659.507 258.977 650.748 272.883 649.464 473.892 649.415 631.58 628.469 648.925 568.536 674.797 536.244 717.741 489.867 860.723 467.118 1196.83 479.498 1345.24 498.864 1406.81 546.502 1424.59 736.785 1420.67 838.503 1399.02 855.848 1386.54 867.766 1349.46 878.94 1271.62 882.136 1122.25 866.07 967.049 826.384 821.206 797.041 750.44 763.689 705.321 690.918 646.981 690.911 615.183 690.019 545.53 707.803 495.177"></polyline>
        <polyline id="Fill-9" fill="#E15E29" points="546.417 1425.09 498.461 1407.2 479.004 1345.33 474.162 1287.28 474.685 1287.54 479.498 1345.24 498.864 1406.81 546.502 1424.59 674.858 1421.95 674.936 1422.44 546.417 1425.09"></polyline>
        <polyline id="Fill-10" fill="#D8213B" points="482.814 964.94 482.313 964.94 489.373 860.627 535.794 717.507 568.216 674.391 628.205 648.494 648.915 631.345 648.964 473.889 650.249 272.737 659.238 258.467 723.618 260.748 718.279 291.452 713.116 337.708 708.303 495.193 707.803 495.177 712.617 337.672 717.784 291.382 723.027 261.227 659.507 258.977 650.748 272.883 649.464 473.892 649.415 631.58 628.469 648.925 568.536 674.797 536.244 717.741 489.867 860.723 482.814 964.94"></polyline>
        <polyline id="Fill-11" fill="#EB8B2D" points="474.685 1287.54 474.162 1287.28 466.617 1196.84 482.313 964.94 482.814 964.94 467.118 1196.83 474.685 1287.54"></polyline>
        <polyline id="Fill-12" fill="#8FD1E9" points="546.502 1424.59 498.864 1406.81 479.498 1345.24 467.118 1196.83 489.867 860.723 536.244 717.741 568.536 674.797 628.469 648.925 649.415 631.58 649.464 473.892 650.748 272.883 659.507 258.977 723.027 261.227 717.784 291.382 712.617 337.672 707.803 495.177 707.304 495.162 712.118 337.636 717.289 291.312 722.436 261.706 659.777 259.486 651.247 273.029 649.964 473.892 649.914 631.815 628.732 649.355 568.856 675.204 536.694 717.975 490.362 860.818 467.62 1196.83 479.992 1345.14 499.268 1406.43 546.588 1424.09 674.779 1421.45 674.858 1421.95 546.502 1424.59"></polyline>
        <polyline id="Fill-13" fill="#D8213B" points="866.014 964.94 865.496 964.94 826.384 821.206 825.788 819.769 826.022 819.028 826.858 821.044 866.014 964.94"></polyline>
        <polyline id="Fill-14" fill="#EB8B2D" points="866.001 966.795 865.496 964.94 866.014 964.94 866.175 965.533 866.001 966.795"></polyline>
        <polyline id="Fill-15" fill="#8FD1E9" points="865.738 968.695 865.577 967.14 825.91 821.369 825.554 820.511 825.788 819.769 826.384 821.206 866.001 966.795 865.738 968.695"></polyline>
        <polyline id="Fill-16" fill="#D8213B" points="806.288 772.741 797.041 750.44 763.689 705.321 690.918 646.981 690.911 615.183 690.019 545.53 690.519 545.523 691.411 615.183 691.418 646.741 764.053 704.971 797.48 750.192 806.61 772.211 806.288 772.741"></polyline>
        <polyline id="Fill-17" fill="#8FD1E9" points="805.966 773.271 796.602 750.689 763.326 705.67 690.417 647.221 690.411 615.185 689.519 545.536 690.019 545.53 690.911 615.183 690.918 646.981 763.689 705.321 797.041 750.44 806.288 772.741 805.966 773.271"></polyline>
        <path d="M1048.89,579.303 L997.733,480.686 L997,480.863 C999.275,474.502 1000.54,467.27 1000.54,459.482 C1000.54,456.544 1000.35,453.691 1000.01,450.927 L1097.21,450.927 C1096.86,453.691 1096.67,456.544 1096.67,459.482 C1096.67,467.209 1097.92,474.391 1100.16,480.715 L1100.04,480.686 L1048.89,579.303 L1048.89,579.303 Z M1008.95,410.275 L1088.26,410.275 L1088.26,371.294 L1008.95,371.294 L1008.95,410.275 Z M1328.53,982.537 L1322.58,845.003 L1308.74,801.178 L1272.67,741.741 L1221.76,691.687 L1139.1,592.456 L1138.52,506.289 C1155.47,502.483 1167.6,483.637 1167.6,459.482 C1167.6,432.389 1152.35,411.957 1132.13,411.957 C1131.04,411.957 1129.97,412.028 1128.92,412.145 L1128.92,330.641 L968.297,330.641 L968.297,412.145 C967.238,412.028 966.168,411.957 965.079,411.957 C944.862,411.957 929.616,432.389 929.616,459.482 C929.616,483.903 942.005,502.904 959.253,506.416 L958.674,592.456 L876.017,691.687 L825.103,741.741 L789.028,801.178 L775.189,845.003 L769.239,982.537 L760.876,1099.86 L761.587,1236.11 L937.049,1297.84 L1048.89,1294.39 L1156.93,1297.72 L1158.19,1257.09 L1049.51,1253.73 L1048.89,1253.72 L943.38,1256.97 L802.089,1207.27 L801.535,1101.2 L809.808,985.146 L809.828,984.862 L815.57,852.125 L826.32,818.087 L857.221,767.171 L905.958,719.26 L999.227,607.288 L999.462,572.306 L1048.89,667.589 L1098.31,572.306 L1098.55,607.288 L1191.82,719.26 L1240.55,767.171 L1271.45,818.086 L1282.2,852.126 L1287.93,984.579 L1287.95,984.862 L1296.24,1101.2 L1295.61,1221.58 L1336.26,1221.8 L1336.9,1099.86 L1328.53,982.537 L1328.53,982.537 Z" id="Fill-18" fill="#2CA8D3"></path>
        <polyline id="Fill-19" fill="#9B1D23" points="1009.9 788.291 1031.78 796.658 1052.15 811.557 1055.18 824.083 1035.16 834.442 980.477 832.366 947.9 816.706 928.94 791.873 929.107 776.501 961.184 776.5 1002.19 779.928 1028.7 792.393 1027.27 912.785 1022.61 1049.34 1059.73 1106.89 1126.61 1174.56 1161.55 1230.96 1180.17 1287.28 1188.59 1358.31 1174.52 1477.78 1161.35 1506.32 1145.61 1520.47 1121.27 1529.58 1033.2 1545.08 878.983 1546.26 749.386 1543.42 721.553 1527.23 681.522 1461.16 669.422 1384.12 666.318 1316.21 676.167 1253.3 714.003 1170.58 748.696 1125.98 820.191 1068.6 846.833 1028.87 864.23 983.239 872.921 920.427 874.411 808.344 1009.9 788.291"></polyline>
        <polyline id="Fill-20" fill="#E15E29" points="878.976 1546.76 749.246 1543.92 721.191 1527.59 681.044 1461.33 674.936 1422.44 675.44 1422.43 681.522 1461.16 721.553 1527.23 749.386 1543.42 878.983 1546.26 991.407 1545.4 992.395 1545.89 878.976 1546.76"></polyline>
        <path d="M1025.99,964.94 L1025.49,964.94 L1027.27,912.785 L1028.21,834.178 L1035.16,834.442 L1055.18,824.083 L1052.15,811.557 L1031.78,796.658 L1028.67,795.469 L1028.7,792.393 L1002.19,779.928 L961.184,776.5 L929.107,776.501 L928.94,791.873 L934.703,799.42 L934.137,799.504 L928.438,792.039 L928.612,776 L961.205,776 L1002.32,779.437 L1029.21,792.078 L1029.17,795.127 L1032.02,796.216 L1052.59,811.262 L1055.75,824.348 L1035.27,834.947 L1028.7,834.697 L1027.77,912.797 L1025.99,964.94 M866.762,964.94 L866.258,964.94 L872.422,920.39 L873.911,808.338 L874.411,808.344 L872.921,920.427 L866.762,964.94" id="Fill-21" fill="#D8213B"></path>
        <path d="M992.395,1545.89 L991.407,1545.4 L1033.2,1545.08 L1121.27,1529.58 L1145.61,1520.47 L1161.35,1506.32 L1174.52,1477.78 L1188.59,1358.31 L1180.17,1287.28 L1161.55,1230.96 L1126.61,1174.56 L1059.73,1106.89 L1022.61,1049.34 L1025.49,964.94 L1025.99,964.94 L1023.12,1049.2 L1060.12,1106.57 L1127,1174.25 L1162.01,1230.75 L1180.66,1287.18 L1189.09,1358.31 L1175.01,1477.92 L1161.76,1506.62 L1145.88,1520.9 L1121.41,1530.06 L1033.25,1545.58 L992.395,1545.89 M866.51,966.762 L866.175,965.533 L866.258,964.94 L866.762,964.94 L866.51,966.762" id="Fill-22" fill="#EB8B2D"></path>
        <path d="M674.779,1421.45 L668.924,1384.17 L665.816,1316.18 L675.684,1253.15 L713.573,1170.31 L748.337,1125.63 L760.958,1115.5 L760.961,1116.14 L748.696,1125.98 L714.003,1170.58 L676.167,1253.3 L666.318,1316.21 L669.422,1384.12 L675.284,1421.44 L674.779,1421.45 M802.868,1082.5 L802.917,1081.82 L819.818,1068.25 L846.386,1028.64 L863.743,983.114 L865.738,968.695 L865.954,970.781 L864.23,983.239 L846.833,1028.87 L820.191,1068.6 L802.868,1082.5" id="Fill-23" fill="#8FD1E9"></path>
        <polyline id="Fill-24" fill="#E15E29" points="674.936 1422.44 674.858 1421.95 675.362 1421.94 675.44 1422.43 674.936 1422.44"></polyline>
        <polyline id="Fill-25" fill="#8FD1E9" points="674.858 1421.95 674.779 1421.45 675.284 1421.44 675.362 1421.94 674.858 1421.95"></polyline>
        <polyline id="Fill-26" fill="#EB8B2D" points="866.241 968.704 866.07 967.049 866.001 966.795 866.175 965.533 866.51 966.762 866.241 968.704"></polyline>
        <polyline id="Fill-27" fill="#8FD1E9" points="865.954 970.781 865.738 968.695 866.001 966.795 866.07 967.049 866.241 968.704 865.954 970.781"></polyline>
        <polyline id="Fill-28" fill="#2EA7D3" points="760.961 1116.14 760.958 1115.5 802.917 1081.82 802.868 1082.5 760.961 1116.14"></polyline>
        <path d="M878.983,1546.26 L749.386,1543.42 L721.553,1527.23 L681.522,1461.16 L675.44,1422.43 L675.362,1421.94 L675.284,1421.44 L669.422,1384.12 L666.318,1316.21 L676.167,1253.3 L714.003,1170.58 L748.696,1125.98 L760.961,1116.14 L802.868,1082.5 L820.191,1068.6 L846.833,1028.87 L864.23,983.239 L872.921,920.427 L874.411,808.344 L874.91,808.351 L873.421,920.464 L864.718,983.363 L847.279,1029.1 L820.563,1068.94 L749.055,1126.33 L714.434,1170.84 L676.65,1253.44 L666.82,1316.24 L669.921,1384.07 L682.001,1460.98 L721.914,1526.86 L749.526,1542.92 L878.991,1545.76 L1033.16,1544.58 L1121.14,1529.1 L1145.35,1520.03 L1160.94,1506.02 L1174.03,1477.64 L1188.09,1358.31 L1179.68,1287.39 L1161.1,1231.18 L1126.21,1174.87 L1059.34,1107.2 L1022.11,1049.48 L1026.77,912.769 L1027.7,834.659 L980.354,832.861 L947.576,817.105 L934.137,799.504 L934.703,799.42 L928.94,791.873 L929.107,776.5 L961.184,776.5 L1002.19,779.928 L1028.7,792.393 L1028.67,795.469 L1031.78,796.658 L1052.15,811.557 L1055.18,824.083 L1035.16,834.442 L1028.21,834.178 L1027.27,912.785 L1022.61,1049.34 L1059.73,1106.89 L1126.61,1174.56 L1161.55,1230.96 L1180.17,1287.28 L1188.59,1358.31 L1174.52,1477.78 L1161.35,1506.32 L1145.61,1520.47 L1121.27,1529.58 L1033.2,1545.08 L991.407,1545.4 L878.983,1546.26 M1028.71,833.696 L1035.05,833.937 L1054.6,823.82 L1051.71,811.853 L1031.54,797.102 L1029.16,796.193 L1028.71,833.696 M961.164,777 L929.601,777.001 L929.442,791.706 L948.225,816.308 L980.599,831.87 L1027.71,833.658 L1028.16,795.812 L1009.72,788.759 L1010.08,787.825 L1028.18,794.746 L1028.2,792.709 L1002.06,780.419 L961.164,777" id="Fill-29" fill="#9B1D23"></path>
        <polyline id="Fill-30" fill="#292D78" points="2054.81 625.987 2021.8 597.637 1990.75 588.116 1945.08 581.487 1873.77 578.868 1802.47 581.487 1756.79 588.116 1725.75 597.637 1692.74 625.987 1815.92 602.634 1809.97 679.275 1807.71 742.507 1807.25 815.711 1795.54 822.198 1751.8 828.888 1702.41 841.754 1655.86 859.448 1603.49 898.71 1576.51 939.901 1557.77 995.762 1542.06 1065.86 1526.51 1181.88 1524.25 1304.47 1519.76 1440.02 1544.78 1445.28 1569.17 1446.55 1769.17 1444.52 1873.77 1444.63 1978.38 1444.52 2178.37 1446.55 2202.77 1445.28 2227.79 1440.02 2223.3 1304.47 2221.03 1181.88 2205.49 1065.86 2189.78 995.762 2171.04 939.901 2144.06 898.71 2091.69 859.448 2045.14 841.754 1995.74 828.888 1952.01 822.198 1940.3 815.711 1939.84 742.507 1937.58 679.275 1931.63 602.634"></polyline>
        <path d="M2098.29,1527.64 C2113.36,1529 2128.6,1529.66 2143.66,1529.64044 C2158.79,1527.79 2174.11,1525.2 2189.25,1521.94 C2214.53,1508.4 2240.15,1492.92 2265.49,1475.89 C2271.43,1466.2 2277.42,1456.36 2283.36,1446.52 C2284.37,1413.76 2285.4,1380.76 2286.42,1348.33 L2286.47,1347.45 C2289.53,1310.74 2292.64,1273.48 2295.73,1236.69 L2300.07,1163.11 L2286.21,1109.16 C2282.95,1106.36 2279.67,1103.53 2276.41,1100.68 C2259.8,1097.17 2242.99,1092.93 2226.4,1088.06 L2224.15,1087.4 L2222.17,1086.16 C2210.84,1079.12 2199.35,1071.64 2188.02,1063.92 L2180.51,1058.81 L2180.5,1049.72 C2180.46,1020.93 2180.45,991.735 2180.45,962.946 L2180.47,962.13 L2185.21,862.075 L2191.46,858.539 L2185.51,855.127 L2186.48,835.18 C2185.08,834.287 2183.69,833.39 2182.3,832.491 C2172.97,833.862 2163.58,834.983 2154.25,835.841 L2146.34,844.307 L2137.24,836.909 C2127.8,837.209 2118.31,837.254 2108.88,837.046 C2106.88,838.586 2104.87,840.12 2102.86,841.644 C2103.02,845.012 2103.19,848.386 2103.38,851.74 L2103.89,861.274 L2098.09,865.347 L2104.07,867.98 L2104.59,878.603 C2106.06,908.679 2107.52,938.983 2108.94,968.674 L2108.96,969.495 C2108.96,998.284 2108.94,1027.48 2108.9,1056.27 L2108.89,1064.51 L2102.47,1069.67 C2091.17,1078.74 2079.71,1087.58 2068.39,1095.96 L2066.67,1097.23 L2064.68,1098.05 C2047.93,1104.92 2030.97,1111.12 2014.2,1116.51 C2010.6,1120.04 2006.98,1123.57 2003.37,1127.05 C1998.67,1145.75 1994,1164.42 1989.33,1183.07 C1990.78,1207.44 1992.23,1231.84 1993.67,1256.28 C1996.76,1292.73 1999.87,1329.67 2002.93,1366.09 L2002.98,1366.98 C2004,1399.19 2005.03,1431.99 2006.03,1464.58 C2011.76,1473.44 2017.54,1482.31 2023.28,1491.04 C2048.23,1504.98 2073.44,1517.28 2098.29,1527.64 Z M2142.65,1564.06 C2125.99,1564.06 2109.12,1563.26 2092.47,1561.67 L2089.91,1561.43 L2087.54,1560.45 C2059.42,1548.85 2030.88,1534.9 2002.72,1518.98 L1999.11,1516.93 L1996.82,1513.46 C1989.41,1502.21 1981.9,1490.69 1974.51,1479.22 L1971.92,1475.2 L1971.77,1470.42 C1970.73,1436.43 1969.66,1402.15 1968.59,1368.52 C1965.54,1332.18 1962.43,1295.33 1959.35,1258.97 L1959.32,1258.53 C1957.82,1233.14 1956.32,1207.79 1954.82,1182.47 L1954.66,1179.83 L1955.3,1177.27 C1960.58,1156.18 1965.87,1135.04 1971.18,1113.87 L1972.39,1109.06 L1975.98,1105.63 C1981.62,1100.23 1987.34,1094.67 1992.97,1089.11 L1995.93,1086.18 L1999.91,1084.93 C2016.38,1079.76 2033.1,1073.73 2049.64,1067.01 C2057.89,1060.87 2066.22,1054.48 2074.49,1047.95 C2074.52,1022 2074.53,995.792 2074.53,969.906 C2073.29,943.832 2072.01,917.288 2070.72,890.842 L2066.76,889.062 L2064.59,881.316 C2062.98,875.58 2061.37,869.826 2059.76,864.055 L2056.41,852.062 L2066.76,845.132 C2067.34,844.742 2067.92,844.35 2068.51,843.956 C2068.34,840.653 2068.19,837.356 2068.05,834.086 L2067.66,824.976 L2074.97,819.533 C2080.86,815.154 2086.81,810.628 2092.66,806.082 L2097.58,802.255 L2103.81,802.468 C2116.61,802.905 2129.59,802.837 2142.39,802.266 L2143.09,802.234 L2144.9,802.092 C2157.69,801.086 2170.66,799.537 2183.46,797.488 L2190.04,796.436 L2195.61,800.084 C2201.46,803.913 2207.41,807.731 2213.31,811.431 L2221.84,816.785 L2220.92,835.625 C2221.04,835.688 2221.15,835.751 2221.27,835.814 L2233.22,842.293 L2229.69,855.417 C2228.08,861.397 2226.47,867.359 2224.86,873.305 L2222.98,880.241 L2218.7,882.667 L2214.87,963.356 C2214.87,988.955 2214.88,1014.87 2214.91,1040.54 C2222.72,1045.75 2230.57,1050.82 2238.35,1055.69 C2254.78,1060.45 2271.39,1064.55 2287.77,1067.88 L2292.25,1068.79 L2295.69,1071.81 C2301.34,1076.77 2307.07,1081.72 2312.7,1086.53 L2316.84,1090.07 L2334.75,1159.76 L2330.05,1239.36 C2326.97,1276.06 2323.86,1313.23 2320.81,1349.86 C2319.75,1383.62 2318.68,1418.01 2317.63,1452.08 L2317.49,1456.58 L2315.17,1460.44 C2307.77,1472.71 2300.27,1485.04 2292.87,1497.08 L2290.93,1500.24 L2287.86,1502.32 C2259.82,1521.32 2231.38,1538.53 2203.33,1553.45 L2201.25,1554.56 L2198.94,1555.06 C2181.64,1558.87 2164.09,1561.85 2146.78,1563.93 L2145.79,1564.05 L2144.8,1564.06 C2144.08,1564.06 2143.37,1564.06 2142.65,1564.06 L2142.65,1564.06 Z" id="Fill-31" fill="#D9272A"></path>
        <polyline id="Fill-32" fill="#D8232A" points="1267.93 1438.47 1291.57 1402.4 1478.59 1428.98 1713.53 1311.82 1775.72 1152.7 1738.23 1151.22 1740.91 1118.9 1865.8 1127.78 1868.57 1160.71 1817.01 1160.54 1869.98 1311.66 1840.67 1432.15 1692.55 1576.67 1485.52 1619.15 1365.33 1586.56 1253.4 1463.54"></polyline>
        <polyline id="Fill-33" fill="#0067A5" points="616.828 1615.38 579.509 1611.23 542.665 1596.6 516.699 1578.4 498.397 1557.02 484.955 1529.67 475.185 1486.58 473.307 1451.28 479.28 1401.07 496.179 1353.75 515.435 1322.7 538.016 1299.36 566.322 1279.19 595.572 1266.64 637.645 1259.49 651.64 1259.82 652.176 1247.94 647.935 1206.89 636.029 1180.57 624.576 1170.33 619.577 1168.49 611.867 1168.87 609.047 1111.89 628.344 1110.94 654.476 1120.53 683.043 1146.08 703.73 1191.82 709.357 1246.29 705.29 1336.57 657.359 1317.03 641.786 1316.65 611.821 1321.75 594.438 1329.2 575.384 1342.78 560.691 1357.97 547.862 1378.65 535.169 1414.19 530.536 1453.15 531.896 1478.7 539.11 1510.52 546.421 1525.39 555.352 1535.83 569.934 1546.05 593.431 1555.38 615.707 1557.85 633.177 1555.22 658.09 1543.68 690.531 1533.83 732.221 1545.61 764.451 1546.76 787.665 1542.73 808.57 1533.77 821.096 1524.11 832.652 1509.55 844.252 1488.5 853.712 1451.63 852.531 1413.56 842.604 1371.37 823.788 1335.73 812.209 1324 794.056 1313.58 773.716 1307.76 726.587 1307.76 726.583 1250.71 781.721 1250.71 816.435 1260.65 847.354 1278.39 870.308 1301.65 896.464 1351.2 909.375 1406.07 910.985 1457.96 897.712 1509.69 880.309 1541.27 861.454 1565.02 837.697 1583.36 804 1597.8 768.348 1603.99 723.32 1602.38 691.11 1593.28 678.463 1597.12 649.747 1610.42 616.828 1615.38"></polyline>
        <path d="M2593.35,1653.11 C2592.91,1669.1 2588.17,1708.35 2585.63,1727.98 C2583.1,1747.61 2582.77,1747.61 2580.26,1727.98 C2577.76,1708.34 2573.1,1669.07 2572.65,1653.11 C2572.19,1637.16 2575.96,1644.53 2578.32,1653.11 C2580.68,1661.69 2581.64,1671.49 2582.05,1675.55 C2582.46,1679.6 2582.33,1677.91 2582.36,1678.15 C2582.4,1678.39 2582.61,1680.55 2582.67,1681.09 C2582.73,1681.63 2582.64,1680.55 2582.67,1681.09 C2582.71,1681.64 2582.88,1683.81 2582.92,1684.53 C2582.96,1685.26 2582.88,1684.54 2582.92,1684.53 C2582.96,1684.53 2583.11,1685.23 2583.23,1684.53 C2583.34,1683.83 2583.43,1681.72 2583.44,1681.09 C2583.46,1680.46 2583.41,1681.32 2583.44,1681.09 C2583.48,1680.87 2583.59,1679.57 2583.75,1678.09 C2583.91,1676.6 2584.12,1674.93 2584.09,1675.55 C2584.06,1676.17 2583.79,1679.08 2584.09,1675.55 C2584.39,1672.01 2585.25,1662.04 2587.58,1653.11 C2589.9,1644.19 2593.79,1637.13 2593.35,1653.11 Z M2560.49,1722.95 C2560.72,1722.81 2560.3,1722.78 2560.49,1722.95 C2560.68,1723.12 2561.49,1723.49 2562.17,1722.49 C2562.86,1721.49 2563.43,1719.11 2563.58,1720.95 C2563.72,1722.79 2563.44,1728.83 2563.58,1720.95 C2563.72,1713.07 2564.28,1691.26 2564.58,1681.13 C2564.87,1671 2564.88,1672.55 2564.89,1673.65 C2564.89,1674.75 2564.88,1675.39 2564.89,1673.65 C2564.9,1671.9 2564.92,1667.76 2564.7,1664.81 C2564.48,1661.85 2564.01,1660.08 2563.89,1659.57 C2563.76,1659.07 2563.98,1659.82 2563.89,1659.57 C2563.8,1659.33 2563.39,1658.08 2562.61,1657.51 C2561.83,1656.95 2560.68,1657.07 2560.49,1656.93 C2560.3,1656.78 2561.08,1656.37 2560.49,1656.93 C2559.9,1657.48 2557.93,1658.99 2557.28,1659.33 C2556.62,1659.67 2557.28,1658.83 2557.28,1659.33 C2557.27,1659.82 2556.6,1661.65 2556.28,1664.66 C2555.96,1667.66 2555.99,1671.83 2556,1673.56 C2556.01,1675.28 2556,1674.57 2556,1673.56 C2555.99,1672.54 2555.99,1671.23 2556.28,1681.38 C2556.56,1691.53 2557.13,1713.14 2557.28,1720.95 C2557.42,1728.76 2557.14,1722.76 2557.28,1720.95 C2557.41,1719.14 2557.97,1721.5 2558.68,1722.49 C2559.39,1723.47 2560.26,1723.1 2560.49,1722.95 Z M2570.47,1673.27 C2570.64,1672.12 2571.18,1662.83 2570.47,1673.27 C2569.77,1683.72 2567.83,1713.9 2567.26,1724.79 C2566.69,1735.69 2567.49,1727.29 2567.26,1724.79 C2567.03,1722.29 2565.77,1725.67 2564.26,1727.13 C2562.75,1728.59 2560.98,1728.13 2560.55,1727.9 C2560.12,1727.68 2561.02,1727.69 2560.55,1727.9 C2560.07,1728.11 2558.22,1728.52 2556.65,1727.28 C2555.08,1726.05 2553.79,1723.17 2553.46,1724.85 C2553.14,1726.54 2553.78,1732.8 2553.46,1724.85 C2553.15,1716.91 2551.9,1694.76 2551.27,1683.9 C2550.64,1673.03 2550.65,1673.45 2550.65,1674.23 C2550.65,1675.01 2550.66,1676.16 2550.65,1674.23 C2550.64,1672.3 2550.63,1667.29 2551.18,1663.58 C2551.73,1659.86 2552.84,1657.43 2553.13,1656.74 C2553.41,1656.05 2552.85,1657.09 2553.13,1656.74 C2553.4,1656.39 2554.5,1654.66 2556.16,1653.72 C2557.81,1652.78 2560.02,1652.63 2560.55,1652.55 C2561.08,1652.47 2559.93,1652.47 2560.55,1652.55 C2561.17,1652.64 2563.55,1652.81 2565.25,1653.72 C2566.94,1654.64 2567.95,1656.29 2568.19,1656.68 C2568.42,1657.07 2567.9,1656.2 2568.19,1656.68 C2568.47,1657.16 2569.57,1659 2570.04,1663.11 C2570.51,1667.23 2570.31,1674.43 2570.47,1673.27 Z M2545.93,1660.5 C2546.22,1673.43 2547.04,1709.76 2545.93,1727.81 C2544.82,1745.87 2541.79,1745.64 2540.69,1727.81 C2539.59,1709.98 2540.42,1674.55 2540.69,1660.87 C2540.96,1647.19 2540.66,1655.28 2539.65,1657.98 C2538.64,1660.69 2536.92,1658.02 2536.45,1657.11 C2535.98,1656.21 2536.76,1657.08 2536.45,1657.11 C2536.14,1657.15 2534.73,1656.36 2533.89,1657.8 C2533.04,1659.23 2532.75,1662.89 2532.55,1659.69 C2532.34,1656.49 2532.22,1646.43 2532.55,1659.69 C2532.88,1672.95 2533.67,1709.53 2532.55,1727.81 C2531.43,1746.09 2528.41,1746.07 2527.3,1727.81 C2526.2,1709.55 2527.02,1673.05 2527.3,1659.32 C2527.59,1645.58 2527.34,1654.61 2527.21,1657.33 C2527.08,1660.06 2527.07,1656.48 2527.06,1655.31 C2527.05,1654.15 2527.03,1655.4 2527.06,1655.31 C2527.09,1655.22 2527.16,1653.79 2526.85,1653.3 C2526.53,1652.81 2525.83,1653.26 2526.85,1653.3 C2527.86,1653.34 2530.59,1652.96 2531.54,1653.3 C2532.49,1653.63 2531.65,1654.67 2531.85,1654.69 C2532.04,1654.71 2533.27,1653.71 2534.77,1653.17 C2536.27,1652.64 2538.05,1652.57 2538.31,1652.58 C2538.57,1652.6 2537.31,1652.7 2538.31,1652.58 C2539.31,1652.46 2542.56,1652.11 2544.22,1654.79 C2545.89,1657.46 2545.97,1663.15 2545.93,1660.5 C2545.89,1657.84 2545.64,1647.57 2545.93,1660.5 Z M2477.95,1722.95 C2478.71,1722.81 2479.75,1722.78 2477.95,1722.95 C2476.15,1723.12 2471.52,1723.49 2479.65,1722.49 C2487.78,1721.49 2508.68,1719.11 2516.26,1720.95 C2523.85,1722.79 2518.12,1728.83 2516.26,1720.95 C2514.4,1713.07 2516.41,1691.26 2517.25,1681.13 C2518.09,1671 2517.76,1672.55 2517.59,1673.65 C2517.42,1674.75 2517.41,1675.39 2517.59,1673.65 C2517.77,1671.9 2518.14,1667.76 2517.38,1664.81 C2516.61,1661.85 2514.69,1660.08 2516.57,1659.57 C2518.45,1659.07 2524.11,1659.82 2516.57,1659.57 C2509.03,1659.33 2488.28,1658.08 2480.05,1657.51 C2471.83,1656.95 2476.14,1657.07 2477.95,1656.93 C2479.76,1656.78 2479.07,1656.37 2477.95,1656.93 C2476.83,1657.48 2475.27,1658.99 2474.77,1659.33 C2474.26,1659.67 2474.81,1658.83 2474.77,1659.33 C2474.72,1659.82 2474.08,1661.65 2473.78,1664.66 C2473.47,1667.66 2473.49,1671.83 2473.5,1673.56 C2473.51,1675.28 2473.5,1674.57 2473.5,1673.56 C2473.5,1672.54 2473.5,1671.23 2473.78,1681.38 C2474.06,1691.53 2474.62,1713.14 2474.77,1720.95 C2474.91,1728.76 2474.63,1722.76 2474.77,1720.95 C2474.9,1719.14 2475.45,1721.5 2476.16,1722.49 C2476.86,1723.47 2477.19,1723.1 2477.95,1722.95 Z M2523.58,1673.27 C2523.71,1672.12 2524.14,1662.83 2523.58,1673.27 C2523.01,1683.72 2521.45,1713.9 2520.34,1724.79 C2519.23,1735.69 2518.56,1727.29 2520.34,1724.79 C2522.12,1722.29 2526.34,1725.67 2517.32,1727.13 C2508.3,1728.59 2486.04,1728.13 2478.11,1727.9 C2470.18,1727.68 2476.58,1727.69 2478.11,1727.9 C2479.65,1728.11 2476.31,1728.52 2474.19,1727.28 C2472.07,1726.05 2471.17,1723.17 2470.99,1724.85 C2470.8,1726.54 2471.34,1732.8 2470.99,1724.85 C2470.64,1716.91 2469.4,1694.76 2468.78,1683.9 C2468.16,1673.03 2468.16,1673.45 2468.16,1674.23 C2468.15,1675.01 2468.15,1676.16 2468.16,1674.23 C2468.16,1672.3 2468.17,1667.29 2468.72,1663.58 C2469.26,1659.86 2470.35,1657.43 2470.68,1656.74 C2471,1656.05 2470.55,1657.09 2470.68,1656.74 C2470.8,1656.39 2471.5,1654.66 2473.69,1653.72 C2475.89,1652.78 2479.59,1652.63 2478.11,1652.55 C2476.64,1652.47 2470,1652.47 2478.11,1652.55 C2486.23,1652.64 2509.11,1652.81 2518.32,1653.72 C2527.53,1654.64 2523.06,1656.29 2521.3,1656.68 C2519.54,1657.07 2520.49,1656.2 2521.3,1656.68 C2522.12,1657.16 2522.82,1659 2523.14,1663.11 C2523.46,1667.23 2523.44,1674.43 2523.58,1673.27 Z M2465.01,1652.68 C2465.34,1652.66 2464.53,1652.48 2465.01,1652.68 C2465.49,1652.88 2467.26,1653.46 2467.87,1653.24 C2468.48,1653.02 2467.93,1652 2467.87,1653.24 C2467.81,1654.47 2468.25,1657.95 2467.87,1659.08 C2467.49,1660.21 2466.3,1658.98 2465.39,1658.62 C2464.48,1658.25 2463.85,1658.76 2463.91,1658.52 C2463.98,1658.29 2464.74,1657.31 2463.91,1658.52 C2463.09,1659.74 2460.68,1663.15 2459.7,1659.94 C2458.72,1656.74 2459.17,1646.92 2459.7,1659.94 C2460.23,1672.97 2460.83,1708.85 2459.7,1727.3 C2458.57,1745.74 2455.72,1746.76 2454.33,1727.3 C2452.94,1707.84 2453.02,1667.9 2454.33,1653.08 C2455.64,1638.26 2458.17,1648.55 2459.01,1653.08 C2459.85,1657.61 2458.98,1656.38 2459.17,1655.4 C2459.35,1654.42 2460.58,1653.69 2461.9,1653.27 C2463.22,1652.85 2464.68,1652.71 2465.01,1652.68 Z M2448.7,1727.49 C2447.29,1750.92 2444.49,1750.96 2443.09,1727.49 C2441.69,1704.02 2441.69,1657.04 2443.09,1633.45 C2444.49,1609.87 2447.28,1609.68 2448.7,1633.45 C2450.11,1657.22 2450.1,1704.05 2448.7,1727.49 L2448.7,1727.49 Z" id="Fill-34" fill="#DB392A"></path>
    </g>
</svg>