<svg width="1400" height="971" viewBox="0 0 1400 971" fill="none" xmlns="http://www.w3.org/2000/svg">
<g clip-path="url(#clip0)">
<g filter="url(#filter0_d)">
<path d="M1400 0H-113.671V1010.49H1400V0Z" fill="black"/>
</g>
<path d="M1400 0H-113.671V1010.49H1400V0Z" fill="url(#paint0_linear)" stroke="#979797"/>
<path d="M806.411 839.335L838.146 783.478L896.086 709.927L941.512 673.003L969.009 605.81L984.502 520.916L957.075 197.177L725.175 73.1484L678.788 87.3871L632.401 73.1484L400.501 197.177L373.074 520.916L388.567 605.81L416.064 673.003L461.489 709.927L519.43 783.478L551.165 839.335L678.788 840.562L806.411 839.335ZM861.815 465.061L918.511 478.575L930.649 616.899L847.143 636.969L835.076 622.967L778.993 637.385L728.044 629.263L789.851 516.368L814.3 513.627L828.74 495.728L842.938 510.416L850.08 509.615L850.082 509.612L830.077 494.07L837.479 484.896L837.465 484.897L861.815 465.061ZM831.809 543.315L807.674 515.938L815.087 555.065L783.538 566.814L815.087 578.563L807.674 617.69L831.809 590.313L855.944 617.69L848.53 578.563L880.079 566.814L848.53 555.065L855.944 515.938L831.809 543.315ZM520.111 484.897L520.097 484.896L527.498 494.07L507.494 509.612L507.495 509.615L514.638 510.416L528.836 495.728L543.276 513.627L567.725 516.368L629.532 629.263L578.583 637.385L522.499 622.967L510.432 636.969L426.927 616.899L439.065 478.575L495.761 465.061L520.111 484.897ZM525.767 543.315L501.632 515.938L509.045 555.065L477.496 566.814L509.045 578.563L501.632 617.69L525.767 590.313L549.902 617.69L542.488 578.563L574.037 566.814L542.488 555.065L549.902 515.938L525.767 543.315Z" fill="url(#paint1_linear)"/>
<path d="M248.366 545.337L230.008 520.462L206.362 456.918L141.711 414.844L118.853 197.833L210.567 73.1484L296.484 73.7166L382.401 73.1484L474.115 197.833L451.256 414.844L386.606 456.918L362.96 520.462L344.602 545.337L296.484 546.996L248.366 545.337ZM292.654 219.446L252.349 229.404L252.34 229.39L230.904 263.736L276.831 315.898L296.484 299.478L316.137 315.898L362.063 263.736L340.627 229.39L340.619 229.404L300.314 219.446L296.484 223.589L292.654 219.446ZM172.288 283.49L205.103 315.575L245.478 313.822L208.949 235.953L172.288 283.49ZM384.019 235.953L347.49 313.822L387.865 315.575L420.68 283.49L384.019 235.953Z" fill="white" fill-opacity="0.01"/>
<path fill-rule="evenodd" clip-rule="evenodd" d="M201.929 55.9463L296.484 56.5716L391.039 55.9463L491.871 193.026L467.461 424.758L400.711 468.198L378.197 528.699L353.484 562.187L296.484 564.152L239.484 562.187L214.771 528.699L192.257 468.198L125.506 424.758L101.097 193.026L201.929 55.9463ZM219.204 90.351L136.608 202.64L157.917 404.932L220.467 445.638L245.246 512.226L257.248 528.489L296.484 529.842L335.72 528.489L347.722 512.226L372.501 445.638L435.051 404.932L456.359 202.639L373.763 90.351L296.484 90.8621L219.204 90.351ZM260.519 209.725L252.6 196.579L227.952 236.073L212.538 203.215L149.394 285.092L198.421 333.026L266.46 330.072L275.001 339.774L296.484 321.825L317.966 339.774L326.508 330.072L394.547 333.026L443.574 285.092L380.43 203.215L365.016 236.073L340.367 196.579L332.449 209.725L299.496 201.583L298.376 200.371L296.484 200.839L294.592 200.371L293.471 201.583L260.519 209.725ZM286.932 238.521L263.201 244.384L252.215 261.987L278.66 292.023L296.484 277.132L314.307 292.023L340.753 261.987L329.767 244.384L306.036 238.521L296.484 248.854L286.932 238.521ZM373.948 297.81L381.182 298.124L397.786 281.89L387.607 268.691L373.948 297.81ZM205.36 268.691L195.181 281.89L211.785 298.124L219.02 297.81L205.36 268.691Z" fill="#FE0C39"/>
<path d="M271.887 845.102L285.41 799.143L332.797 788.979L352.669 744.818L329.268 627.68L237.089 567.588L124.517 567.459L62.8267 639.628L75.5372 718.683L75.808 740.618L84.583 773.472L93.3254 806.783L113.558 837.602L136.379 862.824H178.933L271.887 845.102ZM196.276 753.637L154.131 723.149L186.864 690.576L226.921 725.639L194.081 759.388L196.276 753.637ZM226.417 759.384L258.415 718.256L293.337 755.073L253.561 791.93L219.46 758.892" fill="url(#paint2_linear)"/>
<path d="M1103.81 919.081L1120.35 850.549L1122.92 832.672L1123.1 731.073L1020.69 643.401L984.661 660.481L948.636 643.401L846.218 731.073L846.398 832.672L848.972 850.549L865.517 919.081L927.079 895.051L927.274 926.325L946.26 952.923L969.325 951.183L984.661 948.073L999.997 951.183L1023.06 952.923L1042.05 926.325L1042.24 895.051L1103.81 919.081ZM999.664 823.909L1027.14 791.576L1064.81 830.875L1035.1 863.227L1005.58 831.603L1004.89 831.039L1004.9 831.002L984.661 851.825L964.421 831.002L964.428 831.039L963.74 831.603L934.221 863.227L904.512 830.875L942.181 791.576L969.658 823.909L984.661 806.081L999.664 823.909ZM1006.6 832.616V824.367H992.656V832.616H1006.6ZM976.666 832.616V824.367H962.72V832.616H976.666Z" fill="#FF0058"/>
<path d="M1305.95 575.459C1314.72 558.087 1323.49 540.508 1332.24 522.721C1345.99 502.523 1359.72 481.833 1373.44 460.649C1383.44 420.902 1393.43 380.933 1403.42 340.745C1412.72 322.128 1422.03 303.318 1431.35 284.312C1438.62 261.34 1445.9 238.277 1453.17 215.123C1457.83 189.195 1462.45 163.241 1467.04 137.261C1457.3 56.8837 1447.55 -23.6101 1437.79 -104.221C1373.04 -85.2154 1308.28 -77.8907 1243.5 -82.2466C1237.62 -79.1871 1231.7 -76.2442 1225.75 -73.4181C1219.85 -75.0775 1213.94 -76.8406 1208.04 -78.7075C1143.26 -62.1394 1078.5 -58.7687 1013.74 -68.5955C1003.98 13.0003 994.236 94.4147 984.501 175.647C989.11 201.239 993.731 226.791 998.366 252.304C1005.64 274.732 1012.92 297.043 1020.19 319.237C1029.51 337.128 1038.82 354.785 1048.11 372.209C1058.11 411.023 1068.1 449.565 1078.1 487.835C1091.82 506.84 1105.55 525.262 1119.3 543.101C1128.05 559.332 1136.82 575.33 1145.59 591.094C1172.31 596.617 1199.03 599.611 1225.75 600.078C1252.49 594.296 1279.23 586.09 1305.95 575.459L1305.95 575.459ZM1340.97 187.574C1351.63 188.585 1362.28 189.272 1372.94 189.635C1369.78 191.475 1366.62 193.316 1363.43 195.157C1369.98 199.616 1376.51 203.997 1383.03 208.301C1385.35 201.975 1387.7 195.649 1390.05 189.323C1402.23 188.416 1414.4 187.237 1426.56 185.785C1422.99 199.81 1419.43 213.797 1415.89 227.745C1417.18 228.445 1418.47 229.132 1419.77 229.806C1416.84 235.458 1413.93 241.058 1411.04 246.606C1406.77 263.25 1402.5 279.868 1398.23 296.461C1377.49 312.768 1356.76 327.986 1336.04 342.116C1335.01 341.364 1333.98 340.625 1332.94 339.899C1332.71 340.029 1332.49 340.158 1332.28 340.288C1332.36 340.081 1332.45 339.847 1332.55 339.588C1315.74 326.625 1298.93 312.794 1282.12 298.094C1299.86 270.717 1317.59 242.354 1335.31 213.006L1340.97 187.574ZM1374.09 239.097C1361.58 241.302 1349.06 243.093 1336.53 244.468C1341.96 255.963 1347.4 267.367 1352.84 278.68C1347.4 296.895 1341.96 315.019 1336.53 333.053C1349.06 318.86 1361.58 304.251 1374.09 289.227C1386.6 286.244 1399.12 282.909 1411.66 279.225C1406.19 268.923 1400.75 258.557 1395.34 248.127C1400.75 229.029 1406.19 209.867 1411.66 190.64C1399.12 207.142 1386.6 223.295 1374.09 239.097V239.097ZM1116.22 233.876C1133.94 260.063 1151.67 285.162 1169.42 309.171C1152.6 327.088 1135.79 344.045 1118.97 360.043C1119.07 360.25 1119.17 360.47 1119.24 360.704C1119.04 360.574 1118.82 360.47 1118.58 360.393C1117.55 361.3 1116.51 362.221 1115.48 363.154C1094.76 352.446 1074.02 340.467 1053.27 327.217C1049 311.22 1044.73 295.17 1040.47 279.069C1037.57 273.857 1034.67 268.62 1031.77 263.356C1033.07 262.5 1034.36 261.645 1035.65 260.789C1032.08 247.281 1028.53 233.72 1024.98 220.108C1037.12 220.082 1049.28 219.68 1061.46 218.902C1063.81 224.917 1066.16 230.92 1068.48 236.909C1075 231.62 1081.54 226.24 1088.08 220.769C1084.9 219.421 1081.73 218.072 1078.57 216.724C1089.23 214.65 1099.89 212.213 1110.55 209.412L1116.22 233.876ZM1077.43 270.214C1071.86 259.208 1066.28 248.111 1060.71 236.924C1062.27 247.982 1063.82 259.04 1065.38 270.098C1056.88 265.1 1048.38 259.92 1039.88 254.56C1047.39 264.53 1054.91 274.358 1062.42 284.043C1057.37 289.093 1052.33 294.091 1047.3 299.037C1055.13 300.099 1062.94 300.98 1070.74 301.679C1072.97 312.918 1075.2 324.131 1077.43 335.319C1079.66 326.643 1081.88 317.955 1084.11 309.254C1091.94 317.385 1099.75 325.323 1107.55 333.066C1102.52 322.448 1097.5 311.779 1092.47 301.057C1099.98 299.84 1107.5 298.455 1115.01 296.901C1106.49 292.731 1097.98 288.342 1089.48 283.732C1091.03 274.435 1092.59 265.139 1094.14 255.842C1088.57 260.71 1083 265.501 1077.43 270.214Z" fill="url(#paint3_linear)"/>
<path d="M1186.63 663.134L1198.87 663.156L1223.94 620.469L1257.42 592.901L1274.99 554.654L1250.98 407.604L1142.76 370.598L1026.73 421.013L1004.58 541.994L1007.61 584.018L1009.52 601.065L1016.55 633.321L1024.05 664.618L1030.59 690.959L1065.04 690.954L1071.42 714.973L1099.87 714.966L1133.27 714.979L1133.27 714.975L1133.27 714.979H1133.27L1186.63 663.134ZM1098.82 598.773L1143.1 568.682L1186.91 602.728L1143.3 642.478L1101.75 601.451L1101.74 601.448L1098.82 598.773ZM1098.05 601.25L1057.85 643.125L1016.24 603.4L1060.67 564.474L1099.47 605.037" fill="white" fill-opacity="0.01"/>
<path fill-rule="evenodd" clip-rule="evenodd" d="M1142.36 360.723L1259.2 400.672L1284.55 555.945L1264.92 598.669L1231.06 626.542L1204.15 672.38L1190.36 672.355L1146.28 715.189L1154.98 724.203L1127.66 724.194L1127.66 724.192L1064.33 724.19L1057.95 700.17L1023.38 700.175L1015.1 666.801L1007.56 635.376L1000.41 602.561L998.431 584.861L995.299 541.488L1018.55 414.521L1142.36 360.723ZM1129.53 705.763L1182.89 653.912L1193.6 653.931L1216.81 614.395L1249.93 587.133L1265.44 553.363L1242.77 414.536L1143.16 380.473L1034.91 427.505L1013.86 542.5L1016.8 583.174L1017.56 589.989L1061.24 551.727L1096.85 588.966L1143.46 557.291L1201.21 602.166L1143.04 655.181L1099.93 612.604L1058.13 656.14L1023.82 623.382L1025.54 631.267L1033 662.398L1033.02 662.47L1037.81 681.743L1072.13 681.738L1078.51 705.756L1129.53 705.763ZM1029.89 603.692L1057.57 630.111L1084.18 602.387L1060.11 577.222L1029.89 603.692ZM1113.4 600.005L1143.55 629.775L1172.61 603.289L1142.73 580.073L1113.4 600.005Z" fill="#413AFF"/>
<path fill-rule="evenodd" clip-rule="evenodd" d="M355.889 408.524L462 430.843L547.058 492.361L581.851 578.658L575.492 668.397L548.217 741.811L524.025 787.589L519.025 804.443L492.479 818.488L481.624 843.182L530.46 855.804L530.924 901.017L510.679 928.239L489.431 923.753L475.849 917.649L465.132 916.262L452.643 918.555L434.775 920.408L434.709 920.416L414.36 922.865L391.24 923.095L367.655 919.584L345.262 917.051L345.248 917.05L323.775 914.469L323.748 914.466L303.37 912.157L280.796 907.991L280.94 887.67L280.91 868.969L271.065 865.605L256.226 863.736L242.51 851.804L242.619 823.698L188.377 752.085L164.655 604.873L169.138 539.181L197.711 482.127L262.356 431.954L355.889 408.524ZM473.683 841.13L472.304 840.773L472.023 844.906L471.57 845.936L472.329 847.598L475.736 846.977L474.998 849.827L522.428 862.086L522.801 898.376L507.276 919.251L491.956 916.016L478.077 909.779L464.915 908.075L451.492 910.54L433.84 912.371L413.835 914.779L391.799 914.998L368.707 911.56L346.215 909.016L346.187 909.013L324.714 906.432L324.701 906.43L304.562 904.149L288.94 901.266L289.036 887.674L288.997 863.181L272.9 857.68L259.683 856.016L250.62 848.132L250.725 820.994L196.05 748.809L172.795 604.5L177.105 541.351L204.128 487.391L265.976 439.389L356.047 416.826L458.648 438.407L540.421 497.549L573.643 579.949L567.498 666.668L540.811 738.499L516.491 784.519L512.23 798.883L486.2 812.655L473.683 841.13ZM318.159 706.333L346.412 707.324L362.56 715.349L362.758 715.101L393.945 720.714L431.894 767.503L405.418 811.626L405.743 811.517L408.324 819.186L395.545 823.49L395.374 823.531L395.366 823.533L388.525 825.828L388.707 825.149L381.604 826.872L381.962 827.971L408.023 838.213L437.867 828.712L437.863 828.702L449.854 823.609L449.862 823.605L453.037 831.048L453.029 831.052L440.871 836.248L407.738 846.796L375.445 834.105L373.713 828.787L361.07 831.854L328.758 818.827L300.899 728.369L318.159 706.333ZM379.09 819.155L391.093 816.243L402.787 772.61L385.657 735.865L364.823 725.511L353.308 740L379.09 819.155ZM357.412 721.828L344.263 738.371L371.2 821.07L361.688 823.378L335.361 812.764L309.881 730.028L321.994 714.564L344.376 715.349L357.412 721.828ZM387.598 727.793L390.39 729.18L389.549 728.144L387.598 727.793ZM392.937 732.321L411.369 771.86L404.534 797.366L422.036 768.198L392.937 732.321Z" fill="#FFD000"/>
<path d="M1189.82 887.502L1204.44 869.525L1216.62 884.274L1229.66 867.719L1238.63 880.649L1250.34 895.041L1260.12 875.754L1267.49 887.035L1276.75 894.625L1276.79 883.446L1276.86 865.602L1307.21 845.847L1332.99 808.056L1337.5 753.359L1303.35 692.962L1229.63 668.214L1155.74 695.05L1123.12 760.803L1135.55 836.764L1136.84 851.292L1162.3 898.365L1163.83 922.931L1163.84 922.922L1163.84 922.919L1189.82 887.502ZM1215.18 808.02L1225.58 794.804L1222.68 811.993L1238.55 812.702L1224.53 820.921L1233.92 835.022L1219.34 828.081L1215.18 844.955L1211.03 828.081L1196.45 835.022L1205.84 820.921L1191.82 812.702L1207.69 811.993L1204.79 794.804L1215.18 808.02ZM1257.36 782.074L1273.6 770.303L1267.87 790.029L1283.64 802.48L1263.86 802.9L1257.36 822.366L1250.86 802.9L1231.08 802.48L1246.85 790.029L1241.12 770.303L1257.36 782.074Z" fill="#0681FF"/>
<path d="M38.7933 943.912C37.8543 955.915 36.0158 954.936 35.3447 943.912C34.6736 932.887 35.1699 911.816 35.3447 902.602C35.5195 893.388 35.373 896.031 35.0694 897.842C34.7658 899.652 34.3053 900.631 35.0694 897.842C35.8335 895.052 37.8222 888.496 38.7933 897.842C39.7644 907.187 39.7322 931.908 38.7933 943.912ZM43.4795 904.109C44.2077 903.473 46.0844 902.643 46.7803 903.537C47.4762 904.431 46.9914 907.049 46.6946 907.945C46.3977 908.842 46.2887 908.016 46.6946 907.945C47.1005 907.874 48.0212 908.556 46.8375 907.945C45.6537 907.334 42.3654 905.43 48.4664 904.496C54.5675 903.561 70.0578 903.596 75.6162 903.566C81.1745 903.535 76.8009 903.439 75.6162 903.566C74.4314 903.692 76.4355 904.041 77.1451 903.923C77.8547 903.806 77.2697 903.223 77.1451 903.923C77.0205 904.624 77.3562 906.607 76.6164 907.272C75.8766 907.938 74.0612 907.286 75.3304 907.058C76.5996 906.83 80.9533 907.027 75.3304 907.058C69.7074 907.089 54.1078 906.953 48.1664 908.131C42.225 909.309 45.9419 911.801 47.2376 910.493C48.5332 909.185 47.4076 904.078 47.2376 910.493C47.0675 916.908 47.853 934.844 47.2376 943.841C46.6221 952.837 44.6057 952.893 43.8796 943.841C43.1535 934.788 43.7177 916.628 43.8796 908.718C44.0415 900.808 43.8012 903.15 43.4795 904.109C43.1578 905.069 42.7512 904.746 43.4795 904.109H43.4795ZM93.498 911.009C93.6008 912.11 93.6451 911.485 93.498 911.009C93.3508 910.534 93.0123 910.209 91.2791 916.918C89.546 923.627 86.4182 937.371 85.596 944.21C84.7739 951.049 86.2574 950.982 85.596 944.21C84.9347 937.438 82.1285 923.959 80.6287 917.535C79.1288 911.11 78.9353 911.739 78.8106 912.386C78.686 913.033 78.6303 913.698 78.8106 912.386C78.991 911.074 79.4074 907.784 81.144 905.932C82.8806 904.081 85.9374 903.667 86.7269 903.48C87.5164 903.292 86.0385 903.331 86.7269 903.48C87.4153 903.628 90.27 903.887 91.7515 905.531C93.233 907.175 93.3952 909.908 93.498 911.009H93.498ZM82.2978 910.935C82.2463 911.47 82.2424 910.319 82.2978 910.935C82.3533 911.551 82.4682 913.934 83.4427 915.302C84.4171 916.671 86.2511 917.025 86.7612 917.176C87.2713 917.327 86.4575 917.276 86.7612 917.176C87.0649 917.077 88.486 916.93 89.2103 915.807C89.9345 914.683 89.9619 912.583 89.9928 912.117C90.0238 911.65 90.0583 912.816 89.9928 912.117C89.9274 911.417 89.7619 908.852 88.848 907.446C87.9341 906.041 86.2716 905.794 85.8338 905.688C85.3959 905.581 86.1825 905.613 85.8338 905.688C85.485 905.762 84.0008 905.879 83.2253 907.028C82.4497 908.178 82.3494 910.399 82.2978 910.935ZM109.983 908.887C110.952 908.199 110.065 902.362 109.983 908.887C109.9 915.412 110.622 934.299 109.983 943.583C109.344 952.867 107.345 952.548 106.614 943.583C105.882 934.617 106.418 917.005 106.614 909.803C106.809 902.6 106.663 905.808 106.028 906.742C105.394 907.676 104.27 906.337 103.93 905.841C103.589 905.345 104.032 905.692 103.93 905.841C103.828 905.99 103.181 905.94 102.602 905.998C102.023 906.057 101.513 906.223 101.36 906.27C101.207 906.317 101.412 906.243 101.36 906.27C101.308 906.297 101 906.423 100.889 906.427C100.778 906.432 100.865 906.314 100.917 907.214C100.97 908.114 100.99 910.033 100.932 908.387C100.874 906.741 100.739 901.53 100.932 908.387C101.125 915.243 101.646 934.167 100.932 943.583C100.218 952.998 98.2678 952.904 97.5626 943.583C96.8573 934.261 97.3964 915.712 97.5626 907.872C97.7287 900.032 97.5218 902.901 97.2199 904.039C96.918 905.177 96.5211 904.583 97.2199 904.039C97.9187 903.495 99.7133 903 100.532 903.338C101.351 903.676 101.194 904.846 100.775 905.383C100.356 905.921 99.6751 905.825 100.775 905.383C101.874 904.942 104.754 904.155 105.486 903.338C106.218 902.521 104.801 901.675 105.486 903.338C106.171 905.002 109.014 909.576 109.983 908.887H109.983ZM153.087 911.009C153.189 912.11 153.233 911.485 153.087 911.009C152.941 910.534 152.604 910.209 150.868 916.918C149.131 923.627 145.995 937.371 145.17 944.21C144.345 951.049 145.831 950.982 145.17 944.21C144.508 937.438 141.699 923.959 140.202 917.535C138.705 911.11 138.52 911.739 138.398 912.386C138.276 913.033 138.218 913.698 138.398 912.386C138.578 911.074 138.997 907.784 140.732 905.932C142.466 904.081 145.515 903.667 146.301 903.48C147.086 903.292 145.608 903.331 146.301 903.48C146.993 903.628 149.856 903.887 151.34 905.531C152.825 907.175 152.985 909.908 153.087 911.009H153.087ZM141.886 910.935C141.834 911.47 141.831 910.319 141.886 910.935C141.94 911.551 142.053 913.934 143.031 915.302C144.009 916.671 145.851 917.025 146.365 917.176C146.878 917.327 146.061 917.276 146.365 917.176C146.668 917.077 148.093 916.93 148.814 915.807C149.536 914.683 149.555 912.583 149.582 912.117C149.61 911.65 149.647 912.816 149.582 912.117C149.518 911.417 149.352 908.852 148.437 907.446C147.523 906.041 145.86 905.794 145.422 905.688C144.984 905.581 145.771 905.613 145.422 905.688C145.074 905.762 143.589 905.879 142.813 907.028C142.038 908.178 141.937 910.399 141.886 910.935H141.886ZM163.438 944.18C161.797 954.934 161.861 954.885 160.198 944.18C158.535 933.474 155.145 912.113 154.825 903.927C154.506 895.741 157.258 900.73 158.657 903.927C160.055 907.123 160.102 908.527 160.471 910.705C160.841 912.882 161.534 915.834 161.811 916.796C162.087 917.758 161.947 916.73 161.811 916.796C161.675 916.862 161.544 918.022 161.955 916.796C162.366 915.571 163.32 911.96 163.625 910.79C163.931 909.62 163.589 910.891 163.625 910.79C163.662 910.69 164.076 909.22 164.331 908.274C164.587 907.328 164.684 906.907 164.778 906.329C164.871 905.751 164.961 905.016 165.08 904.599C165.199 904.182 165.347 904.082 165.08 904.599C164.813 905.115 164.13 906.247 165.167 903.927C166.203 901.607 168.959 895.835 168.71 903.927C168.461 912.018 165.08 933.426 163.438 944.18H163.438Z" fill="#FF7E18"/>
</g>
<defs>
<filter id="filter0_d" x="-117.671" y="-2" width="1521.67" height="1018.49" filterUnits="userSpaceOnUse" color-interpolation-filters="sRGB">
<feFlood flood-opacity="0" result="BackgroundImageFix"/>
<feColorMatrix in="SourceAlpha" type="matrix" values="0 0 0 0 0 0 0 0 0 0 0 0 0 0 0 0 0 0 127 0"/>
<feOffset dy="2"/>
<feGaussianBlur stdDeviation="2"/>
<feColorMatrix type="matrix" values="0 0 0 0 0 0 0 0 0 0 0 0 0 0 0 0 0 0 0.5 0"/>
<feBlend mode="normal" in2="BackgroundImageFix" result="effect1_dropShadow"/>
<feBlend mode="normal" in="SourceGraphic" in2="effect1_dropShadow" result="shape"/>
</filter>
<linearGradient id="paint0_linear" x1="218.789" y1="295.623" x2="445.307" y2="816.677" gradientUnits="userSpaceOnUse">
<stop stop-color="#D4FC60"/>
<stop offset="0.273181" stop-color="#FFDB44"/>
<stop offset="0.474077" stop-color="#FA2363"/>
<stop offset="0.708652" stop-color="#FB041F"/>
<stop offset="0.885665" stop-color="#9100FF"/>
<stop offset="1" stop-color="#AA00EB"/>
</linearGradient>
<linearGradient id="paint1_linear" x1="678.788" y1="73.1484" x2="914.5" y2="690.682" gradientUnits="userSpaceOnUse">
<stop stop-color="#000606"/>
<stop offset="0.339489" stop-color="#0016FF"/>
<stop offset="0.658444" stop-color="#3E00FF"/>
<stop offset="1" stop-color="white"/>
</linearGradient>
<linearGradient id="paint2_linear" x1="87.3179" y1="610.88" x2="180.929" y2="736.873" gradientUnits="userSpaceOnUse">
<stop stop-color="#FFDD00"/>
<stop offset="0.46343" stop-color="#FF2A2C"/>
<stop offset="1" stop-color="#333AFF"/>
</linearGradient>
<linearGradient id="paint3_linear" x1="1260.23" y1="63.8474" x2="1072.06" y2="373.644" gradientUnits="userSpaceOnUse">
<stop stop-color="#003EFF"/>
<stop offset="0.261158" stop-color="#D4FC60"/>
<stop offset="1" stop-color="#FF0000"/>
</linearGradient>
<clipPath id="clip0">
<rect width="1400" height="971" fill="white"/>
</clipPath>
</defs>
</svg>
